<?xml version="1.0" encoding="UTF-8" standalone="no"?>
<svg width="500" height="400" viewBox="0 0 500 400" xmlns="http://www.w3.org/2000/svg">
  <style>
    .gear {
      fill: #0078d7;
      transform-origin: center;
      animation: rotate 20s linear infinite;
    }
    .gear2 {
      fill: #0078d7;
      transform-origin: center;
      animation: rotate-reverse 15s linear infinite;
    }
    .code {
      fill: #ffffff;
      font-family: monospace;
      font-size: 14px;
    }
    .image-frame {
      fill: none;
      stroke: #0078d7;
      stroke-width: 3;
    }
    .image-part {
      fill: #6c757d;
      animation: pulse 3s ease-in-out infinite;
    }
    @keyframes rotate {
      0% { transform: rotate(0deg); }
      100% { transform: rotate(360deg); }
    }
    @keyframes rotate-reverse {
      0% { transform: rotate(0deg); }
      100% { transform: rotate(-360deg); }
    }
    @keyframes pulse {
      0% { opacity: 0.5; }
      50% { opacity: 1; }
      100% { opacity: 0.5; }
    }
  </style>
  
  <!-- Background Elements -->
  <rect x="0" y="0" width="500" height="400" fill="#202020" />
  <path d="M0,400 L500,300 L500,400 Z" fill="#151515" />
  <path d="M0,0 L500,100 L500,0 Z" fill="#151515" />
  
  <!-- Gear Icons -->
  <g transform="translate(75, 100)">
    <path class="gear" d="M50,20 L53,0 L47,0 L50,20 Z M50,80 L53,100 L47,100 L50,80 Z M80,50 L100,53 L100,47 L80,50 Z M20,50 L0,53 L0,47 L20,50 Z M71,29 L85,15 L80,10 L66,24 Z M29,71 L15,85 L10,80 L24,66 Z M71,71 L85,85 L80,90 L66,76 Z M29,29 L15,15 L10,10 L24,24 Z M50,25 C36.2,25 25,36.2 25,50 C25,63.8 36.2,75 50,75 C63.8,75 75,63.8 75,50 C75,36.2 63.8,25 50,25 Z" />
  </g>
  
  <g transform="translate(350, 240)">
    <path class="gear2" d="M50,20 L53,0 L47,0 L50,20 Z M50,80 L53,100 L47,100 L50,80 Z M80,50 L100,53 L100,47 L80,50 Z M20,50 L0,53 L0,47 L20,50 Z M71,29 L85,15 L80,10 L66,24 Z M29,71 L15,85 L10,80 L24,66 Z M71,71 L85,85 L80,90 L66,76 Z M29,29 L15,15 L10,10 L24,24 Z M50,25 C36.2,25 25,36.2 25,50 C25,63.8 36.2,75 50,75 C63.8,75 75,63.8 75,50 C75,36.2 63.8,25 50,25 Z" />
  </g>
  
  <!-- Code Block -->
  <rect x="150" y="90" width="200" height="110" rx="10" ry="10" fill="#2d2d2d" />
  <text x="170" y="115" class="code">function modEffect() {</text>
  <text x="190" y="135" class="code">  const heroId = 123;</text>
  <text x="190" y="155" class="code">  const skinId = 456;</text>
  <text x="190" y="175" class="code">  return apply(heroId);</text>
  <text x="170" y="195" class="code">}</text>
  
  <!-- Image Processing Visual -->
  <rect x="200" y="220" width="150" height="120" class="image-frame" rx="5" ry="5" />
  <rect x="210" y="230" width="60" height="45" class="image-part" rx="2" ry="2" />
  <rect x="280" y="230" width="60" height="45" class="image-part" rx="2" ry="2" />
  <rect x="210" y="285" width="60" height="45" class="image-part" rx="2" ry="2" />
  <rect x="280" y="285" width="60" height="45" class="image-part" rx="2" ry="2" />
  <line x1="200" y1="280" x2="350" y2="280" stroke="#0078d7" stroke-width="1" />
  <line x1="275" y1="220" x2="275" y2="340" stroke="#0078d7" stroke-width="1" />
  
  <!-- Logo Elements -->
  <circle cx="250" cy="50" r="20" fill="#0078d7" />
  <text x="245" y="55" style="font-family: Arial; font-weight: bold; font-size: 16px; fill: white;">D</text>
  <text x="230" y="75" style="font-family: Arial; font-weight: bold; font-size: 14px; fill: #0078d7;">Dev0x4</text>
</svg>